<?xml version="1.0" encoding="UTF-8"?>
<svg xmlns="http://www.w3.org/2000/svg" xmlns:xlink="http://www.w3.org/1999/xlink" width="53pt" height="53pt" viewBox="0 0 53 53" version="1.1">
<g id="surface1">
<path style=" stroke:none;fill-rule:nonzero;fill:rgb(31.372549%,31.372549%,31.372549%);fill-opacity:1;" d="M 45.050781 15.667969 L 45.050781 9.449219 L 1.726562 9.449219 L 1.726562 37.503906 C 1.726562 40.84375 4.4375 43.550781 7.777344 43.550781 L 45.109375 43.550781 C 48.507812 43.550781 51.328125 40.785156 51.328125 37.332031 L 51.328125 15.667969 Z M 48.160156 37.332031 C 48.160156 39.058594 46.777344 40.441406 45.050781 40.441406 L 7.777344 40.441406 C 6.164062 40.441406 4.839844 39.117188 4.839844 37.503906 L 4.839844 12.558594 L 41.996094 12.558594 L 41.996094 35.832031 C 41.996094 36.695312 42.6875 37.386719 43.550781 37.386719 C 44.417969 37.386719 45.109375 36.695312 45.109375 35.832031 L 45.109375 18.78125 L 48.21875 18.78125 Z M 48.160156 37.332031 "/>
<path style=" stroke:none;fill-rule:nonzero;fill:rgb(31.372549%,31.372549%,31.372549%);fill-opacity:1;" d="M 7.949219 15.667969 L 38.945312 15.667969 L 38.945312 18.78125 L 7.949219 18.78125 Z M 7.949219 15.667969 "/>
<path style=" stroke:none;fill-rule:nonzero;fill:rgb(31.372549%,31.372549%,31.372549%);fill-opacity:1;" d="M 26.5 34.21875 L 38.886719 34.21875 L 38.886719 37.332031 L 26.5 37.332031 Z M 26.5 34.21875 "/>
<path style=" stroke:none;fill-rule:nonzero;fill:rgb(31.372549%,31.372549%,31.372549%);fill-opacity:1;" d="M 26.5 28.054688 L 38.886719 28.054688 L 38.886719 31.167969 L 26.5 31.167969 Z M 26.5 28.054688 "/>
<path style=" stroke:none;fill-rule:nonzero;fill:rgb(31.372549%,31.372549%,31.372549%);fill-opacity:1;" d="M 26.5 21.832031 L 38.886719 21.832031 L 38.886719 24.945312 L 26.5 24.945312 Z M 26.5 21.832031 "/>
<path style=" stroke:none;fill-rule:nonzero;fill:rgb(31.372549%,31.372549%,31.372549%);fill-opacity:1;" d="M 23.390625 37.332031 L 7.949219 37.332031 L 7.949219 21.777344 L 23.445312 21.777344 L 23.445312 37.332031 Z M 11.003906 34.21875 L 20.277344 34.21875 L 20.277344 24.886719 L 11.003906 24.886719 Z M 11.003906 34.21875 "/>
</g>
</svg>
