<?xml version="1.0" encoding="UTF-8"?>
<svg xmlns="http://www.w3.org/2000/svg" xmlns:xlink="http://www.w3.org/1999/xlink" width="53pt" height="53pt" viewBox="0 0 53 53" version="1.1">
<g id="surface1">
<path style=" stroke:none;fill-rule:nonzero;fill:rgb(18.431373%,18.431373%,18.431373%);fill-opacity:1;" d="M 26.222656 7.867188 C 27.867188 7.859375 29.507812 8.082031 31.09375 8.527344 C 32.625 8.960938 34.089844 9.582031 35.464844 10.382812 C 38.191406 11.984375 40.460938 14.253906 42.0625 16.984375 C 42.867188 18.359375 43.488281 19.824219 43.917969 21.355469 C 44.804688 24.542969 44.804688 27.90625 43.917969 31.09375 C 43.488281 32.625 42.867188 34.089844 42.0625 35.464844 C 40.460938 38.191406 38.191406 40.460938 35.464844 42.0625 C 34.089844 42.867188 32.625 43.488281 31.09375 43.917969 C 27.90625 44.804688 24.542969 44.804688 21.355469 43.917969 C 19.824219 43.488281 18.359375 42.867188 16.984375 42.0625 C 14.253906 40.460938 11.984375 38.191406 10.382812 35.464844 C 9.582031 34.089844 8.960938 32.625 8.527344 31.09375 C 7.644531 27.90625 7.644531 24.542969 8.527344 21.355469 C 8.960938 19.824219 9.582031 18.359375 10.382812 16.984375 C 11.984375 14.253906 14.253906 11.984375 16.984375 10.382812 C 18.359375 9.582031 19.824219 8.960938 21.355469 8.527344 C 22.941406 8.082031 24.578125 7.859375 26.222656 7.867188 Z M 26.222656 42.285156 C 27.570312 42.285156 28.914062 42.105469 30.21875 41.757812 C 31.507812 41.417969 32.753906 40.921875 33.921875 40.28125 C 35.09375 39.636719 36.175781 38.855469 37.152344 37.949219 C 38.140625 37.039062 39.011719 36.003906 39.746094 34.878906 C 39.589844 34.519531 39.4375 34.171875 39.292969 33.832031 C 39.152344 33.464844 39.078125 33.078125 39.070312 32.683594 C 39.066406 32.332031 39.089844 31.980469 39.136719 31.636719 C 39.136719 31.363281 39.222656 31.136719 39.25 30.945312 C 39.28125 30.753906 39.3125 30.574219 39.335938 30.417969 C 39.351562 30.234375 39.332031 30.050781 39.269531 29.875 C 39.191406 29.621094 39.089844 29.371094 38.957031 29.140625 C 38.8125 28.855469 38.597656 28.484375 38.304688 28.03125 C 38.304688 27.945312 38.328125 27.832031 38.371094 27.691406 C 38.402344 27.542969 38.425781 27.394531 38.4375 27.242188 C 38.441406 27.097656 38.441406 26.945312 38.4375 26.800781 C 38.429688 26.683594 38.402344 26.570312 38.347656 26.464844 C 38.019531 26.421875 37.691406 26.359375 37.375 26.265625 C 37.050781 26.179688 36.75 26.035156 36.484375 25.835938 L 36.585938 25.742188 C 36.429688 25.78125 36.273438 25.832031 36.128906 25.902344 L 35.664062 26.089844 L 35.199219 26.246094 C 35.042969 26.289062 34.882812 26.308594 34.722656 26.308594 L 34.433594 26.308594 L 34.488281 26.179688 L 33.945312 26.359375 C 33.773438 26.429688 33.582031 26.460938 33.398438 26.464844 C 33.214844 26.449219 33.039062 26.40625 32.878906 26.335938 C 32.640625 26.25 32.40625 26.148438 32.179688 26.035156 C 31.964844 25.921875 31.761719 25.792969 31.574219 25.636719 C 31.433594 25.542969 31.335938 25.394531 31.3125 25.226562 L 31.3125 25.171875 C 31.242188 25.097656 31.167969 25.03125 31.082031 24.972656 L 30.808594 24.796875 C 30.726562 24.742188 30.648438 24.675781 30.585938 24.597656 C 30.527344 24.53125 30.492188 24.4375 30.492188 24.347656 L 30.695312 24.191406 L 30.285156 24.136719 L 30.136719 23.605469 C 30.136719 23.664062 30.21875 23.683594 30.304688 23.671875 C 30.375 23.671875 30.441406 23.648438 30.492188 23.605469 L 29.839844 23.265625 L 30.347656 22.03125 C 30.1875 21.566406 30.148438 21.070312 30.230469 20.589844 C 30.3125 20.277344 30.472656 19.992188 30.703125 19.765625 C 30.953125 19.523438 31.214844 19.308594 31.503906 19.113281 C 31.835938 18.871094 32.132812 18.578125 32.371094 18.238281 L 32.316406 18.023438 L 33.503906 16.585938 L 33.777344 16.585938 C 34.113281 16.585938 34.488281 16.585938 34.910156 16.585938 C 35.332031 16.585938 35.75 16.539062 36.175781 16.460938 L 37.449219 16.28125 C 37.871094 16.21875 38.246094 16.140625 38.59375 16.0625 C 38.214844 15.582031 37.808594 15.121094 37.382812 14.6875 C 36.957031 14.28125 36.515625 13.894531 36.050781 13.523438 L 35.5625 13.730469 C 35.363281 13.824219 35.171875 13.929688 34.996094 14.054688 C 34.816406 14.175781 34.667969 14.3125 34.53125 14.476562 C 34.414062 14.609375 34.347656 14.777344 34.34375 14.957031 L 34.445312 15.304688 C 34.289062 15.597656 34.042969 15.828125 33.734375 15.953125 C 33.46875 16.046875 33.195312 16.09375 32.914062 16.097656 L 32.058594 16.097656 C 31.765625 16.089844 31.476562 16.140625 31.207031 16.261719 L 30.925781 15.652344 L 31.195312 14.601562 L 30.894531 14.152344 L 34.035156 13.1875 C 33.917969 12.863281 33.691406 12.59375 33.390625 12.433594 C 33.085938 12.265625 32.753906 12.179688 32.414062 12.179688 L 32.414062 12 L 33.460938 11.84375 C 32.355469 11.296875 31.191406 10.871094 29.988281 10.582031 C 27.738281 10.050781 25.40625 10.015625 23.140625 10.492188 C 22.132812 10.691406 21.144531 10.992188 20.191406 11.382812 C 19.238281 11.769531 18.320312 12.25 17.453125 12.808594 C 16.589844 13.347656 15.78125 13.980469 15.042969 14.6875 C 15.304688 14.671875 15.566406 14.757812 15.765625 14.929688 C 15.9375 15.085938 16.089844 15.261719 16.226562 15.453125 C 16.363281 15.636719 16.507812 15.8125 16.671875 15.976562 C 16.832031 16.140625 17.0625 16.226562 17.296875 16.21875 L 17.582031 15.996094 L 17.582031 15.597656 L 18.167969 14.757812 L 17.707031 13.433594 L 17.992188 13.257812 C 18.070312 13.191406 18.175781 13.148438 18.28125 13.132812 C 18.5625 13.128906 18.835938 13.144531 19.113281 13.1875 C 19.289062 13.214844 19.457031 13.285156 19.601562 13.398438 C 19.75 13.511719 19.878906 13.652344 19.980469 13.800781 C 20.097656 13.980469 20.273438 14.199219 20.488281 14.476562 L 21.132812 13.976562 L 21.722656 14.210938 C 21.996094 14.332031 22.261719 14.464844 22.519531 14.609375 C 22.769531 14.75 23.003906 14.90625 23.226562 15.085938 C 23.386719 15.1875 23.496094 15.355469 23.527344 15.542969 C 23.535156 15.714844 23.453125 15.871094 23.316406 15.976562 C 23.160156 16.09375 22.988281 16.183594 22.804688 16.25 C 22.585938 16.324219 22.363281 16.378906 22.132812 16.417969 L 21.464844 16.550781 C 21.28125 16.589844 21.101562 16.652344 20.933594 16.742188 C 20.8125 16.789062 20.730469 16.902344 20.71875 17.035156 L 21.765625 17.371094 C 21.523438 17.582031 21.265625 17.769531 20.988281 17.9375 C 20.714844 18.109375 20.433594 18.261719 20.140625 18.402344 L 20.210938 18.703125 L 18.566406 19.355469 L 18.566406 19.855469 L 18.4375 19.910156 L 18.535156 19.28125 L 18.460938 19.28125 C 18.378906 19.28125 18.324219 19.28125 18.304688 19.332031 C 18.289062 19.371094 18.289062 19.421875 18.304688 19.457031 C 18.304688 19.507812 18.304688 19.554688 18.304688 19.601562 C 18.316406 19.640625 18.316406 19.679688 18.304688 19.710938 L 18.070312 19.582031 L 18.070312 19.65625 C 18.082031 19.714844 18.105469 19.769531 18.136719 19.8125 C 18.179688 19.890625 18.226562 19.960938 18.28125 20.023438 L 18.492188 20.289062 C 18.492188 20.289062 18.492188 20.359375 18.410156 20.390625 L 18.238281 20.476562 L 18.09375 20.476562 C 18.09375 20.476562 18.292969 20.476562 18.191406 20.476562 C 18.035156 20.519531 17.890625 20.578125 17.75 20.65625 C 17.539062 20.761719 17.34375 20.902344 17.183594 21.074219 C 16.988281 21.285156 16.890625 21.566406 16.90625 21.851562 C 16.90625 22.050781 16.90625 22.25 16.90625 22.4375 C 16.933594 22.632812 16.933594 22.828125 16.90625 23.027344 C 16.773438 22.605469 16.507812 22.238281 16.152344 21.976562 C 15.796875 21.734375 15.371094 21.609375 14.941406 21.621094 L 14.175781 21.695312 L 14.550781 21.941406 L 13.929688 22.03125 C 13.714844 22.007812 13.496094 22.007812 13.277344 22.03125 C 13.070312 22.046875 12.859375 22.09375 12.660156 22.175781 C 12.460938 22.257812 12.28125 22.378906 12.136719 22.542969 L 12.035156 23.351562 C 12.015625 23.683594 12.109375 24.011719 12.292969 24.292969 C 12.503906 24.558594 12.832031 24.691406 13.164062 24.660156 C 13.523438 24.660156 13.871094 24.605469 14.210938 24.492188 C 14.5625 24.378906 14.914062 24.261719 15.261719 24.125 C 15.15625 24.386719 15.035156 24.644531 14.90625 24.890625 C 14.777344 25.136719 14.679688 25.398438 14.621094 25.667969 L 14.851562 25.769531 C 15.074219 25.585938 15.382812 25.550781 15.640625 25.679688 C 15.90625 25.832031 16.140625 26.023438 16.339844 26.257812 L 17.046875 27.03125 C 17.257812 27.28125 17.523438 27.476562 17.824219 27.597656 L 17.214844 27.921875 L 15.730469 27.066406 C 15.742188 27.136719 15.742188 27.207031 15.730469 27.273438 C 15.730469 27.355469 15.730469 27.371094 15.730469 27.324219 L 15.085938 26.277344 C 14.671875 26.261719 14.253906 26.195312 13.855469 26.089844 C 13.425781 25.945312 13 25.769531 12.589844 25.570312 C 12.15625 25.40625 11.742188 25.203125 11.339844 24.984375 C 10.972656 24.789062 10.621094 24.5625 10.292969 24.316406 L 10.164062 26.222656 C 10.164062 27.667969 10.355469 29.101562 10.75 30.492188 C 11.527344 33.25 13.007812 35.757812 15.054688 37.761719 C 16.082031 38.773438 17.246094 39.636719 18.515625 40.324219 C 18.460938 40.074219 18.460938 39.816406 18.515625 39.566406 C 18.5625 39.308594 18.628906 39.0625 18.703125 38.8125 L 18.933594 38.046875 C 19.011719 37.800781 19.046875 37.539062 19.046875 37.28125 C 19.046875 36.867188 18.992188 36.453125 18.878906 36.050781 C 18.757812 35.621094 18.609375 35.199219 18.4375 34.785156 C 18.265625 34.355469 18.082031 33.9375 17.894531 33.523438 C 17.707031 33.113281 17.542969 32.714844 17.402344 32.328125 C 17.273438 31.988281 17.183594 31.636719 17.128906 31.28125 C 17.074219 31 17.113281 30.710938 17.238281 30.449219 L 16.960938 30.328125 C 17.035156 30.15625 17.132812 29.988281 17.257812 29.839844 L 17.625 29.371094 C 17.738281 29.214844 17.839844 29.050781 17.925781 28.875 C 18.007812 28.710938 18.050781 28.527344 18.050781 28.34375 C 18.050781 28.207031 18.023438 28.078125 17.96875 27.953125 C 17.914062 27.835938 17.867188 27.710938 17.835938 27.589844 L 18.210938 27.679688 C 18.363281 27.273438 18.65625 26.9375 19.039062 26.726562 C 19.445312 26.542969 19.890625 26.449219 20.34375 26.464844 C 20.464844 26.476562 20.59375 26.507812 20.71875 26.546875 L 21.324219 26.734375 L 21.941406 26.945312 L 22.363281 27.085938 C 22.363281 27.167969 22.417969 27.222656 22.519531 27.253906 C 22.628906 27.253906 22.675781 27.324219 22.675781 27.367188 L 22.675781 27.511719 L 22.941406 27.652344 L 23.371094 27.910156 L 23.78125 28.195312 L 24.019531 28.398438 C 24.328125 28.417969 24.628906 28.492188 24.914062 28.617188 C 25.324219 28.773438 25.726562 28.957031 26.121094 29.164062 C 26.574219 29.394531 27.015625 29.660156 27.441406 29.9375 C 27.863281 30.207031 28.261719 30.503906 28.644531 30.828125 C 28.972656 31.097656 29.269531 31.394531 29.539062 31.71875 C 29.734375 31.933594 29.859375 32.207031 29.882812 32.496094 L 29.277344 33.148438 C 29.339844 33.621094 29.292969 34.101562 29.140625 34.554688 C 29.011719 34.867188 28.800781 35.140625 28.53125 35.351562 C 28.234375 35.566406 27.917969 35.746094 27.578125 35.886719 C 27.179688 36.058594 26.789062 36.261719 26.421875 36.496094 C 26.417969 36.757812 26.351562 37.023438 26.246094 37.269531 C 26.121094 37.550781 25.96875 37.816406 25.78125 38.058594 C 25.605469 38.296875 25.382812 38.503906 25.136719 38.671875 C 24.914062 38.835938 24.65625 38.921875 24.390625 38.925781 L 23.628906 38.347656 C 23.628906 38.347656 23.628906 38.425781 23.628906 38.484375 C 23.628906 38.546875 23.582031 38.558594 23.550781 38.484375 C 23.671875 38.730469 23.707031 39.007812 23.640625 39.269531 C 23.578125 39.589844 23.472656 39.898438 23.339844 40.1875 C 23.199219 40.496094 23.039062 40.792969 22.855469 41.078125 C 22.707031 41.316406 22.546875 41.546875 22.375 41.765625 C 23.011719 41.933594 23.664062 42.0625 24.316406 42.144531 C 24.945312 42.230469 25.585938 42.28125 26.222656 42.285156 Z M 16.785156 23.695312 C 16.960938 23.699219 17.140625 23.726562 17.304688 23.78125 L 17.894531 23.96875 L 18.472656 24.195312 L 18.988281 24.417969 L 18.402344 24.417969 C 18.207031 24.421875 18.019531 24.390625 17.839844 24.328125 C 17.679688 24.261719 17.523438 24.191406 17.371094 24.105469 L 16.941406 23.882812 C 16.820312 23.824219 16.6875 23.792969 16.550781 23.792969 C 16.4375 23.785156 16.332031 23.8125 16.226562 23.863281 L 15.941406 24.019531 C 15.941406 24.019531 15.941406 23.949219 15.820312 23.949219 C 15.953125 23.839844 16.109375 23.769531 16.28125 23.738281 C 16.445312 23.707031 16.617188 23.691406 16.785156 23.695312 Z M 19.203125 24.503906 C 19.667969 24.5 20.121094 24.585938 20.546875 24.757812 L 20.046875 24.914062 C 19.871094 24.957031 19.699219 24.980469 19.523438 24.972656 C 19.300781 24.980469 19.085938 24.953125 18.871094 24.902344 C 18.914062 24.820312 18.972656 24.757812 19.046875 24.714844 C 19.117188 24.660156 19.160156 24.585938 19.175781 24.503906 Z M 38.671875 16.109375 C 38.683594 16.183594 38.667969 16.253906 38.625 16.308594 L 38.835938 16.308594 Z M 39.859375 17.835938 L 39.359375 17.0625 C 39.191406 16.820312 39.011719 16.578125 38.835938 16.339844 C 38.820312 16.425781 38.785156 16.503906 38.738281 16.574219 C 38.683594 16.671875 38.660156 16.789062 38.671875 16.898438 C 38.679688 17.015625 38.726562 17.128906 38.8125 17.214844 C 38.910156 17.316406 39.019531 17.410156 39.136719 17.484375 C 39.261719 17.570312 39.390625 17.644531 39.523438 17.707031 C 39.632812 17.757812 39.746094 17.800781 39.859375 17.835938 Z M 39.859375 17.835938 "/>
</g>
</svg>
